<svg width="24" height="24" viewBox="0 0 24 24" fill="none" xmlns="http://www.w3.org/2000/svg">
<path d="M23.8238 18.6789L12.4258 23.9192C12.2913 23.9725 12.1466 24 12.0003 24C11.854 24 11.7092 23.9725 11.5748 23.9192L0.176191 18.6789C-0.0558301 18.5717 -0.0558301 18.396 0.176191 18.2884L2.90592 17.0359C3.04056 16.9826 3.1855 16.9551 3.33197 16.9551C3.47844 16.9551 3.62339 16.9826 3.75802 17.0359L11.5748 20.6251C11.7092 20.6787 11.854 20.7063 12.0003 20.7063C12.1466 20.7063 12.2914 20.6787 12.4258 20.6251L20.2426 17.0359C20.3771 16.9826 20.5219 16.9551 20.6683 16.9551C20.8147 16.9551 20.9596 16.9826 21.0941 17.0359L23.8238 18.291C24.0587 18.396 24.0587 18.5717 23.8238 18.6789ZM23.8238 11.3648L21.0941 10.1096C20.9596 10.0563 20.8147 10.0288 20.6683 10.0288C20.5219 10.0288 20.3771 10.0563 20.2426 10.1096L12.4258 13.7032C12.2913 13.7562 12.1465 13.7836 12.0003 13.7836C11.854 13.7836 11.7093 13.7562 11.5748 13.7032L3.75802 10.1096C3.62339 10.0563 3.47844 10.0289 3.33197 10.0289C3.1855 10.0289 3.04056 10.0563 2.90592 10.1096L0.176191 11.3648C-0.0558301 11.4719 -0.0558301 11.6482 0.176191 11.7564L11.5748 16.9957C11.7092 17.049 11.854 17.0764 12.0003 17.0764C12.1466 17.0764 12.2913 17.049 12.4258 16.9957L23.8238 11.7564C24.0587 11.6482 24.0587 11.4725 23.8238 11.3648ZM0.176191 5.27264L11.5742 10.1096C11.8477 10.2087 12.1517 10.2087 12.4252 10.1096L23.8238 5.27264C24.0558 5.173 24.0558 5.01068 23.8238 4.91157L12.4252 0.0751424C12.1519 -0.0250475 11.8475 -0.0250475 11.5742 0.0751424L0.176191 4.91157C-0.0587304 5.01068 -0.0587304 5.173 0.176191 5.27264Z" fill="#6C6CEA"/>
</svg>
