<svg width="30" height="30" viewBox="0 0 30 30" fill="none" xmlns="http://www.w3.org/2000/svg">
<circle cx="15" cy="15" r="15" fill="#6C6CEA"/>
<path d="M20.1188 8.875H17.2333C17.2333 7.84082 16.1982 7 14.925 7C13.6518 7 12.6167 7.84082 12.6167 8.875H9.73125C8.77546 8.875 8 9.50488 8 10.2812V20.5938C8 21.3701 8.77546 22 9.73125 22H20.1188C21.0745 22 21.85 21.3701 21.85 20.5938V10.2812C21.85 9.50488 21.0745 8.875 20.1188 8.875ZM11.4625 19.4219C10.9828 19.4219 10.5969 19.1084 10.5969 18.7188C10.5969 18.3291 10.9828 18.0156 11.4625 18.0156C11.9422 18.0156 12.3281 18.3291 12.3281 18.7188C12.3281 19.1084 11.9422 19.4219 11.4625 19.4219ZM11.4625 16.6094C10.9828 16.6094 10.5969 16.2959 10.5969 15.9062C10.5969 15.5166 10.9828 15.2031 11.4625 15.2031C11.9422 15.2031 12.3281 15.5166 12.3281 15.9062C12.3281 16.2959 11.9422 16.6094 11.4625 16.6094ZM11.4625 13.7969C10.9828 13.7969 10.5969 13.4834 10.5969 13.0938C10.5969 12.7041 10.9828 12.3906 11.4625 12.3906C11.9422 12.3906 12.3281 12.7041 12.3281 13.0938C12.3281 13.4834 11.9422 13.7969 11.4625 13.7969ZM14.925 8.17188C15.4047 8.17188 15.7906 8.48535 15.7906 8.875C15.7906 9.26465 15.4047 9.57812 14.925 9.57812C14.4453 9.57812 14.0594 9.26465 14.0594 8.875C14.0594 8.48535 14.4453 8.17188 14.925 8.17188ZM19.5417 18.9531C19.5417 19.082 19.4118 19.1875 19.2531 19.1875H14.0594C13.9007 19.1875 13.7708 19.082 13.7708 18.9531V18.4844C13.7708 18.3555 13.9007 18.25 14.0594 18.25H19.2531C19.4118 18.25 19.5417 18.3555 19.5417 18.4844V18.9531ZM19.5417 16.1406C19.5417 16.2695 19.4118 16.375 19.2531 16.375H14.0594C13.9007 16.375 13.7708 16.2695 13.7708 16.1406V15.6719C13.7708 15.543 13.9007 15.4375 14.0594 15.4375H19.2531C19.4118 15.4375 19.5417 15.543 19.5417 15.6719V16.1406ZM19.5417 13.3281C19.5417 13.457 19.4118 13.5625 19.2531 13.5625H14.0594C13.9007 13.5625 13.7708 13.457 13.7708 13.3281V12.8594C13.7708 12.7305 13.9007 12.625 14.0594 12.625H19.2531C19.4118 12.625 19.5417 12.7305 19.5417 12.8594V13.3281Z" fill="white"/>
</svg>
